<?xml version="1.0" standalone="no"?>
<!DOCTYPE svg PUBLIC "-//W3C//DTD SVG 20010904//EN"
 "http://www.w3.org/TR/2001/REC-SVG-20010904/DTD/svg10.dtd">
<svg version="1.0" xmlns="http://www.w3.org/2000/svg"
 width="700.000000pt" height="700.000000pt" viewBox="0 0 700.000000 700.000000"
 preserveAspectRatio="xMidYMid meet">
<metadata>
Created by potrace 1.14, written by Peter Selinger 2001-2017
</metadata>
<g transform="translate(0.000000,700.000000) scale(0.100000,-0.100000)"
fill="#000000" stroke="none">
<path d="M5565 6632 c-137 -23 -239 -142 -238 -277 0 -107 65 -211 156 -251
23 -10 45 -22 48 -26 3 -4 4 -47 3 -95 -3 -147 4 -132 -58 -118 -30 7 -57 10
-60 7 -3 -3 -6 -1 -6 4 0 5 -18 8 -40 6 -39 -4 -40 -5 -41 -46 -1 -22 0 -49 1
-59 1 -15 -3 -18 -22 -13 -13 3 -18 3 -11 0 7 -3 11 -11 9 -17 -1 -7 -1 -9 1
-4 9 14 22 7 20 -12 0 -11 -5 -17 -9 -15 -4 3 -8 2 -9 -3 0 -4 -2 -18 -3 -31
-2 -13 2 -26 7 -29 6 -3 7 -1 3 5 -4 7 -2 12 3 12 14 0 14 -13 -1 -28 -7 -7
-8 -12 -2 -12 12 0 12 -129 1 -147 -5 -8 -3 -13 5 -13 9 0 9 -3 -2 -10 -13 -8
-13 -10 -1 -10 11 0 9 -4 -5 -15 -10 -8 -14 -15 -9 -14 22 3 27 -2 15 -16 -10
-12 -10 -15 1 -15 11 0 11 -2 -1 -10 -12 -8 -12 -10 -1 -10 10 0 11 -3 2 -14
-8 -10 -9 -16 -1 -21 14 -9 2 -27 -13 -19 -7 3 -4 -1 6 -9 13 -11 15 -16 5
-19 -11 -4 -11 -8 0 -20 9 -11 10 -18 2 -23 -6 -3 -7 -12 -3 -18 4 -6 8 -20 8
-31 2 -17 1 -17 -10 -2 -16 21 -20 20 -22 -4 -1 -11 4 -19 10 -17 7 1 12 -5
12 -13 0 -8 4 -20 7 -26 9 -14 0 -24 -16 -18 -7 3 -13 -2 -13 -11 0 -9 6 -14
14 -11 11 5 13 -2 9 -29 -4 -24 -2 -35 7 -35 7 0 8 -3 2 -8 -13 -9 -15 -92 -3
-92 5 0 6 -6 1 -12 -4 -7 -8 -116 -8 -241 0 -181 -3 -229 -14 -236 -11 -7 -11
-9 0 -13 17 -6 21 -138 4 -138 -14 0 -43 20 -29 20 6 0 11 7 11 15 0 8 -5 15
-11 15 -6 0 -5 4 2 9 17 11 17 21 0 32 -7 5 -8 9 -3 9 6 0 11 9 12 20 1 13 -2
18 -10 13 -8 -4 -8 -1 1 9 10 13 10 17 0 22 -7 3 -2 3 12 -1 21 -5 23 -4 13 9
-7 8 -10 18 -6 21 3 4 -2 7 -13 7 -14 0 -16 2 -6 9 17 11 18 12 4 37 -6 12 -8
24 -5 28 13 12 13 46 0 46 -6 0 -4 5 6 11 9 5 17 15 17 20 0 6 -5 7 -12 3 -6
-4 -8 -3 -4 4 3 6 2 14 -4 17 -8 5 -8 11 -1 19 6 7 8 16 4 19 -3 4 -1 7 5 7 7
0 12 5 12 11 0 5 -5 7 -12 3 -7 -4 -8 -3 -4 4 4 7 1 12 -6 12 -9 0 -9 3 -2 8
6 4 10 34 9 69 0 34 3 59 7 57 4 -3 8 -1 8 5 0 5 -5 13 -11 16 -6 5 -4 16 7
32 12 19 13 25 3 21 -12 -5 -14 21 -14 138 0 79 4 144 9 144 4 0 3 6 -3 14 -8
10 -9 16 -1 21 5 3 10 11 10 16 0 6 -6 7 -12 3 -9 -5 -9 -2 1 9 7 9 9 17 4 17
-5 0 -10 6 -10 14 0 9 6 12 16 8 14 -5 14 -3 2 11 -11 14 -11 20 0 34 12 15
12 16 -6 10 -19 -7 -19 -6 -2 7 17 13 17 14 0 21 -13 5 -14 9 -5 12 10 4 10 8
1 20 -7 8 -8 13 -3 12 23 -4 26 2 8 16 -10 8 -14 15 -8 15 6 0 10 16 8 38 -1
20 3 43 9 51 10 12 9 13 -7 8 -15 -6 -17 -5 -8 6 7 8 9 17 5 20 -3 4 0 14 8
24 12 14 12 16 -1 11 -12 -5 -14 4 -11 50 2 45 0 58 -15 69 -15 11 -15 13 -2
13 9 0 18 7 22 15 4 12 2 13 -16 2 -16 -9 -22 -9 -25 1 -3 6 -9 10 -14 6 -5
-3 -9 2 -9 10 0 8 -5 18 -12 22 -7 5 -8 3 -3 -7 5 -8 -12 5 -37 27 -25 23 -55
47 -67 54 -13 6 -20 18 -17 25 3 10 0 12 -11 8 -9 -4 -21 0 -27 9 -6 8 -15 16
-21 18 -21 5 -45 27 -38 34 4 4 -1 4 -12 0 -14 -6 -17 -4 -12 9 4 11 2 14 -9
10 -8 -3 -32 6 -54 21 -22 14 -44 26 -50 26 -6 0 -8 4 -5 10 3 5 0 7 -8 4 -8
-3 -21 2 -30 10 -9 9 -23 16 -32 16 -10 0 -13 5 -9 12 4 7 3 8 -4 4 -7 -4 -24
0 -39 8 -31 18 -83 39 -98 40 -5 1 -9 10 -8 21 1 11 0 14 -3 8 -6 -14 -34 -18
-34 -5 0 4 -12 9 -27 10 -15 1 -30 7 -34 13 -3 6 -10 10 -15 10 -5 -1 -34 7
-64 16 -30 9 -57 17 -60 18 -3 1 -20 5 -38 9 -18 4 -30 11 -27 15 2 5 -7 6
-20 3 -14 -2 -25 0 -25 4 0 5 -19 10 -42 12 -23 1 -45 6 -48 10 -3 4 -14 8
-25 8 -11 1 -33 4 -50 8 -16 4 -51 9 -77 13 -27 3 -48 9 -48 12 0 3 -19 6 -43
7 -23 0 -67 4 -97 7 -92 11 -218 19 -330 21 -58 1 -111 5 -119 10 -10 6 -12 5
-7 -2 10 -17 -96 -16 -113 1 -11 10 -13 10 -7 0 4 -7 4 -13 -1 -14 -4 0 -32
-2 -62 -4 -29 -2 -56 -6 -59 -9 -3 -3 -12 0 -20 7 -13 10 -14 9 -8 -1 6 -10 1
-13 -20 -12 -16 1 -31 1 -34 0 -31 -11 -201 -31 -211 -24 -8 4 -9 3 -5 -4 4
-7 0 -12 -11 -13 -21 -1 -28 -2 -113 -24 -131 -33 -166 -43 -207 -58 -22 -9
-44 -13 -47 -10 -3 4 -6 1 -6 -5 0 -6 -14 -13 -31 -17 -29 -7 -61 -19 -164
-66 -23 -9 -47 -19 -55 -21 -8 -2 -17 -6 -20 -9 -3 -3 -36 -23 -75 -44 -38
-21 -87 -49 -107 -62 -21 -14 -42 -22 -49 -17 -7 4 -10 3 -5 -4 4 -6 -4 -16
-16 -23 -12 -7 -28 -17 -35 -23 -36 -32 -44 -36 -55 -30 -6 4 -8 3 -5 -3 4 -6
-3 -18 -16 -26 -12 -8 -32 -25 -45 -36 -12 -13 -28 -19 -35 -15 -6 4 -9 4 -5
-1 11 -11 -12 -36 -25 -28 -5 3 -7 2 -4 -4 3 -5 -9 -24 -27 -42 -19 -18 -33
-40 -31 -49 1 -10 -2 -23 -8 -29 -6 -9 -5 -13 4 -13 12 0 12 -2 1 -9 -17 -10
-17 -21 -2 -31 9 -5 6 -10 -9 -15 -11 -3 -21 -11 -21 -16 0 -13 14 -11 28 3 8
8 12 8 12 1 0 -13 -28 -25 -40 -18 -12 8 -4 67 11 75 8 6 8 9 -1 12 -8 2 -14
11 -16 20 -1 12 3 15 14 10 15 -5 15 -4 2 12 -14 18 -24 119 -10 111 4 -2 7 2
7 10 0 8 -4 12 -9 9 -5 -4 -8 2 -6 12 2 12 -6 20 -24 25 -16 4 -30 4 -33 -1
-6 -10 -24 -8 -44 4 -10 6 -12 5 -7 -2 4 -7 0 -13 -11 -14 -10 0 -29 -2 -43
-3 l-26 -2 0 101 0 101 46 22 c54 26 78 46 112 93 100 138 46 336 -111 412
-35 17 -64 22 -116 22 -115 0 -200 -53 -252 -155 -68 -137 -7 -306 136 -373
l46 -21 -1 -133 c0 -73 -3 -134 -5 -135 -2 -2 -33 -24 -69 -49 -180 -127 -303
-333 -338 -571 -19 -124 0 -315 42 -435 61 -171 195 -340 336 -424 33 -19 57
-37 55 -40 -3 -3 2 -5 10 -5 25 0 95 -26 95 -35 0 -5 5 -6 11 -3 6 4 17 -1 25
-11 9 -11 12 -13 8 -5 -6 11 -1 13 27 7 19 -5 49 -8 67 -9 19 0 32 -5 32 -13
0 -7 10 -18 22 -24 22 -11 23 -11 3 5 -18 14 -18 17 -4 25 11 7 15 21 13 44
-1 23 3 40 14 48 13 11 14 11 8 -1 -6 -9 -5 -12 4 -9 7 2 14 12 16 22 2 12 -2
16 -12 12 -8 -3 -13 -2 -9 3 3 5 0 11 -7 13 -12 4 -21 38 -10 37 21 -3 23 3 6
17 -10 8 -13 13 -6 9 6 -3 12 -1 12 4 0 6 -6 11 -12 11 -7 0 -5 5 5 11 12 7
15 15 9 22 -16 21 -22 47 -10 44 6 -1 13 4 16 12 3 8 0 11 -7 7 -6 -4 -11 -5
-11 -2 0 3 10 10 21 17 12 6 20 7 17 2 -2 -4 -10 -21 -18 -37 -13 -25 -13 -29
3 -41 15 -10 15 -14 3 -18 -16 -6 -11 -47 6 -47 6 0 0 -9 -13 -20 -13 -10 -19
-19 -14 -20 6 0 17 6 25 13 12 10 12 9 2 -4 -10 -14 -9 -18 4 -23 9 -4 14 -9
11 -13 -4 -3 5 -14 18 -25 14 -10 24 -24 22 -31 -1 -6 3 -11 9 -12 6 0 19 -9
30 -19 17 -18 17 -19 1 -13 -11 4 -16 3 -12 -3 3 -6 10 -10 16 -10 5 0 18 -9
30 -21 21 -21 20 -51 -2 -47 -6 2 -14 -4 -16 -12 -4 -13 -3 -13 6 0 6 8 11 11
11 6 0 -6 5 -5 12 2 19 19 36 14 54 -17 10 -17 20 -28 24 -26 3 2 21 -12 39
-31 19 -19 38 -34 42 -34 5 0 9 -5 9 -11 0 -8 -5 -7 -15 1 -9 7 -17 11 -19 9
-2 -2 8 -13 22 -23 14 -11 22 -14 18 -8 -4 7 -3 12 2 12 18 0 21 -40 4 -50
-10 -5 -12 -9 -7 -9 6 0 18 6 28 13 14 11 15 15 5 19 -7 3 -8 6 -3 6 6 0 19
-6 29 -14 14 -11 16 -18 8 -28 -12 -15 -12 -57 0 -57 5 0 6 11 2 24 -6 27 6
39 30 30 25 -9 19 -26 -6 -19 -22 6 -23 6 -3 -10 17 -14 20 -14 28 1 8 14 12
13 33 -7 13 -12 24 -18 24 -13 0 5 6 2 13 -7 7 -9 24 -19 40 -23 15 -3 27 -11
27 -17 0 -6 -6 -6 -19 0 -10 6 -21 8 -24 4 -10 -9 -38 18 -30 30 4 6 1 7 -6 3
-7 -5 -20 -1 -30 8 -16 15 -19 15 -24 2 -4 -11 -1 -13 10 -9 12 5 14 3 8 -7
-5 -8 -4 -11 2 -7 15 10 78 -42 75 -61 -2 -15 -1 -15 7 -2 10 14 15 7 12 -13
-1 -5 2 -6 6 -4 5 3 14 -1 21 -9 7 -8 8 -14 2 -14 -5 0 -10 -5 -10 -12 0 -9 3
-9 12 0 16 16 31 15 21 0 -11 -19 -13 -39 -2 -33 4 3 20 -1 33 -10 14 -9 30
-14 36 -10 6 4 18 1 27 -7 14 -11 16 -11 9 1 -6 9 -5 12 3 10 7 -3 12 -8 12
-12 -1 -4 -1 -14 -1 -24 0 -14 -2 -14 -20 2 -11 10 -22 16 -24 14 -2 -2 7 -12
21 -22 24 -18 24 -18 29 0 3 10 14 20 25 20 11 1 17 -2 14 -7 -5 -8 32 -37 49
-38 5 0 12 -6 17 -13 11 -19 40 -20 63 -2 14 10 16 14 4 10 -18 -6 -33 19 -18
28 6 4 10 2 10 -3 0 -5 9 -12 20 -15 14 -4 18 -11 14 -24 -4 -13 -3 -14 4 -5
5 8 12 13 16 12 4 -1 12 0 18 2 9 3 9 6 0 12 -7 4 -12 2 -12 -4 0 -6 -5 -8
-11 -5 -6 5 -4 11 7 19 13 10 14 15 4 21 -9 5 -11 4 -6 -3 4 -7 2 -12 -3 -12
-6 0 -11 7 -11 15 0 9 6 15 13 14 24 -3 38 1 33 9 -3 5 2 9 11 9 9 0 18 -9 21
-19 5 -21 13 -23 30 -6 13 13 42 -5 42 -26 0 -6 -5 -3 -11 7 -5 9 -15 17 -21
17 -7 0 -6 -5 2 -15 9 -10 9 -15 1 -15 -6 0 -11 3 -11 8 0 4 -11 8 -25 8 -21
2 -24 -1 -14 -12 6 -8 16 -11 22 -7 6 3 7 1 3 -6 -6 -9 -11 -9 -24 1 -13 11
-15 10 -9 -4 4 -12 2 -15 -9 -11 -7 3 -14 0 -14 -6 0 -6 -3 -10 -7 -9 -5 1
-20 -4 -34 -9 -14 -6 -36 -13 -50 -15 -13 -1 -27 -6 -30 -11 -3 -4 -19 -9 -36
-10 -17 -1 -29 -5 -26 -9 4 -7 -12 -10 -33 -7 -4 0 -10 -3 -13 -8 -3 -5 -58
-26 -121 -47 -63 -21 -124 -42 -135 -47 -18 -8 -274 -96 -300 -103 -5 -2 -21
-7 -35 -13 -14 -6 -113 -40 -220 -76 -107 -37 -218 -74 -246 -84 l-50 -18 0
-194 c1 -161 -1 -194 -14 -203 -12 -8 -12 -9 3 -4 14 5 16 1 13 -21 -3 -14
-11 -31 -18 -36 -9 -6 -8 -7 5 -3 20 6 23 -14 5 -33 -10 -11 -10 -13 -1 -7 20
11 15 -21 -4 -34 -17 -11 -17 -11 0 -6 16 5 17 -4 14 -107 l-3 -112 -27 -3
c-15 -2 -33 -12 -40 -23 -8 -10 -18 -16 -23 -11 -4 4 -4 0 2 -8 12 -18 11
-110 -1 -129 -5 -8 -4 -12 1 -9 5 4 10 -5 10 -19 2 -19 -2 -23 -15 -19 -14 5
-14 4 -1 -6 16 -14 20 -84 6 -107 -6 -9 -5 -12 1 -8 12 7 11 -23 -2 -42 -5 -9
-4 -12 2 -8 12 7 11 -83 -2 -102 -5 -8 -4 -12 1 -9 5 3 9 -13 10 -37 1 -35 -2
-42 -15 -38 -11 3 -11 1 2 -7 15 -10 16 -14 5 -28 -7 -9 -8 -13 -3 -10 6 4 10
-16 10 -53 0 -32 3 -59 7 -59 5 0 8 -7 8 -15 0 -8 5 -15 11 -15 7 0 9 -10 5
-28 -5 -22 -4 -24 4 -9 8 12 16 15 28 8 21 -11 27 -52 7 -45 -14 6 -24 -6 -30
-36 -3 -17 -1 -18 14 -10 25 13 35 0 13 -16 -16 -12 -15 -13 3 -8 18 5 20 0
19 -34 0 -21 -4 -44 -9 -52 -5 -8 -4 -11 1 -7 13 8 12 -86 -1 -95 -6 -5 -5 -8
4 -8 11 0 11 -3 0 -17 -8 -9 -9 -14 -4 -11 13 8 13 -51 0 -71 -5 -9 -4 -12 2
-8 6 4 11 -4 11 -18 0 -14 -5 -22 -10 -19 -6 4 -6 -1 0 -13 6 -11 7 -25 2 -33
-5 -8 -6 -19 -2 -25 4 -5 7 -14 7 -20 0 -5 10 -14 22 -20 13 -5 23 -13 23 -18
0 -4 4 -6 9 -3 12 8 103 -26 121 -44 8 -9 11 -10 6 -3 -5 8 -4 13 2 13 11 0
38 -41 33 -50 -1 -2 3 -6 11 -8 8 -2 9 0 3 5 -16 13 -19 47 -3 37 7 -5 18 -9
23 -11 68 -15 105 -30 122 -51 8 -9 12 -11 8 -4 -4 7 0 12 9 12 19 0 20 -11 4
-29 -9 -9 -9 -12 -1 -7 6 3 13 3 16 -1 2 -5 2 -3 1 4 -2 7 1 15 6 18 6 4 10 2
10 -3 0 -6 9 -8 20 -5 12 3 20 0 20 -6 0 -7 6 -11 13 -9 27 5 69 -13 63 -27
-3 -8 -1 -15 3 -15 5 0 11 5 13 11 4 11 90 -13 153 -42 11 -5 30 -11 42 -14
12 -2 31 -9 42 -15 12 -6 21 -8 21 -4 0 4 10 -1 22 -12 13 -12 18 -13 13 -4
-7 12 -6 13 7 3 8 -7 18 -10 21 -6 4 3 7 1 7 -6 0 -7 4 -9 10 -6 6 3 10 2 10
-3 0 -5 10 -8 23 -8 15 1 21 -4 19 -14 -3 -12 -1 -12 9 -3 7 7 18 8 28 3 9 -5
24 -11 34 -14 11 -4 15 -11 11 -18 -6 -9 -9 -9 -12 0 -2 7 -8 12 -13 12 -5 0
-4 -9 3 -19 11 -18 12 -18 30 3 14 17 19 18 26 8 5 -8 12 -13 16 -13 25 4 36
0 30 -11 -5 -8 -2 -9 10 -5 10 4 27 2 39 -5 12 -6 29 -12 37 -13 39 -5 100
-30 100 -41 0 -8 -6 -11 -15 -8 -8 4 -15 10 -15 15 0 5 -4 9 -10 9 -19 0 -10
-17 15 -28 21 -10 27 -9 32 3 4 13 8 13 21 3 12 -10 14 -10 8 0 -4 6 -5 12 -2
12 3 0 13 -12 21 -27 9 -16 14 -20 11 -10 -7 21 12 22 40 2 12 -8 24 -12 27
-9 2 3 21 -2 41 -10 38 -16 39 -16 57 -16 6 0 8 -9 4 -22 -5 -19 -4 -20 4 -7
11 17 61 15 61 -3 0 -5 4 -7 9 -4 12 8 73 -16 89 -34 8 -8 11 -9 7 -2 -10 19
17 10 38 -13 17 -19 17 -20 0 -27 -13 -5 -11 -6 9 -5 21 1 25 4 16 14 -6 8 -8
17 -4 20 4 4 11 1 15 -6 5 -7 13 -11 19 -7 6 3 13 2 17 -4 4 -6 10 -8 15 -5 5
3 11 1 15 -5 4 -6 11 -8 16 -5 5 4 9 1 9 -5 0 -6 4 -9 9 -6 5 3 26 -2 47 -11
22 -9 43 -16 48 -15 4 2 14 -3 22 -9 8 -6 14 -8 14 -3 0 4 5 3 12 -4 7 -7 22
-12 35 -12 13 0 23 -4 23 -8 0 -17 72 -12 137 10 37 12 71 22 75 23 3 0 10 3
14 7 4 5 14 8 23 8 14 0 14 -2 1 -10 -8 -5 -10 -10 -5 -10 6 0 18 9 28 20 9
11 22 20 29 21 7 0 22 3 33 6 11 3 35 6 53 8 18 1 36 6 40 10 4 5 0 5 -8 0 -8
-5 -12 -4 -7 0 4 5 22 14 40 21 17 6 40 15 50 19 14 6 16 4 11 -11 -6 -16 -3
-15 16 4 14 15 30 22 41 19 11 -3 17 -1 14 3 -3 5 -1 11 5 15 5 3 10 1 10 -4
0 -13 37 -15 44 -2 4 5 -4 7 -16 3 -14 -3 -19 -1 -14 6 3 6 20 9 36 7 18 -3
28 0 25 5 -4 6 1 10 10 10 8 0 23 4 33 9 17 9 113 45 122 46 3 0 11 4 18 8 7
5 12 4 12 -2 0 -11 -15 -15 -35 -11 -5 1 -6 -2 -2 -6 12 -12 37 -14 37 -3 0 6
4 7 10 4 6 -4 7 1 3 11 -4 11 -3 15 4 11 6 -4 14 -1 16 5 4 10 6 10 6 1 1 -7
6 -13 12 -13 5 0 8 4 5 9 -6 10 14 20 53 27 13 3 36 11 52 19 15 8 36 12 45 8
12 -4 15 -3 10 5 -6 11 19 18 47 13 4 0 7 5 8 12 0 6 4 3 8 -7 8 -20 41 -32
41 -14 0 6 -7 8 -15 4 -9 -3 -15 0 -15 8 0 23 24 24 37 2 12 -20 13 -19 8 8
-2 16 -1 26 2 22 3 -3 12 -1 20 5 7 6 13 8 13 4 0 -4 7 -2 15 5 8 7 15 10 15
7 0 -3 15 0 33 7 56 24 77 28 77 17 0 -6 -6 -10 -12 -8 -7 1 -13 -8 -14 -21
-1 -19 -1 -19 3 -2 2 11 9 18 14 14 6 -3 13 2 15 13 7 25 73 46 93 30 12 -10
14 -9 8 6 -3 9 -2 17 2 17 5 0 18 3 28 6 13 4 15 3 4 -4 -10 -7 -6 -9 15 -9
16 0 23 2 17 4 -7 3 -13 10 -13 15 0 6 3 8 7 5 3 -4 12 -2 20 4 10 9 17 8 28
-1 8 -7 13 -15 11 -19 -3 -4 6 -7 20 -7 13 0 24 4 24 9 0 5 -7 7 -15 3 -9 -3
-19 3 -25 14 -7 14 -7 20 0 20 5 0 10 -6 10 -12 0 -8 5 -6 11 4 7 13 83 44 96
39 2 0 23 8 48 19 25 11 45 17 45 15 0 -2 16 3 35 11 19 8 35 12 35 10 0 -3
12 1 27 9 21 11 30 12 42 2 12 -9 13 -9 7 1 -7 12 4 16 33 13 7 -2 10 2 7 7
-7 12 11 20 41 17 12 -1 25 5 28 13 3 8 12 11 20 8 8 -3 15 0 15 6 0 7 5 7 14
-1 8 -7 13 -21 11 -32 -2 -11 0 -17 5 -14 9 6 8 24 -3 43 -5 6 -3 13 2 13 35
4 78 26 84 43 4 9 2 16 -3 16 -6 0 -6 9 0 25 6 16 6 25 0 25 -6 0 -6 9 -1 23
5 13 5 30 1 37 -5 8 -4 22 1 32 6 12 6 18 0 18 -6 0 -8 7 -5 15 4 8 10 13 14
10 5 -3 12 0 16 6 4 8 3 9 -4 5 -6 -3 -16 3 -22 14 -8 14 -8 20 0 20 6 0 8 5
5 11 -10 16 -12 69 -3 75 4 3 3 15 -2 28 -4 12 -4 29 0 36 5 8 5 19 1 25 -13
15 5 52 33 71 14 9 23 21 19 27 -4 7 0 8 13 3 15 -6 17 -5 7 5 -18 18 -16 34
2 19 9 -7 15 -8 15 -2 0 5 -7 12 -15 16 -10 3 -20 -6 -31 -30 -11 -23 -20 -31
-24 -24 -5 9 -9 9 -14 1 -4 -6 -2 -11 4 -11 6 0 8 -5 4 -11 -4 -8 -9 -7 -15 2
-4 7 -4 18 1 25 6 6 7 14 3 18 -4 4 1 4 11 0 15 -6 17 -4 11 7 -4 8 -5 11 -1
8 4 -4 17 3 29 15 12 11 38 33 57 47 22 17 28 26 17 26 -9 0 -14 -4 -11 -9 3
-4 1 -8 -4 -8 -17 0 -22 13 -9 28 9 13 9 14 0 8 -9 -5 -13 1 -13 18 0 20 4 24
18 20 14 -5 15 -4 2 5 -18 12 -23 81 -6 81 7 0 7 3 1 8 -14 10 -17 74 -3 66 7
-5 8 -2 3 7 -14 21 -14 150 -1 142 8 -5 7 -2 0 8 -13 15 -13 77 -1 97 5 6 4
12 -1 12 -12 0 -11 32 2 49 8 11 8 13 -1 7 -8 -4 -13 -1 -13 9 0 9 4 14 9 11
10 -7 9 20 -2 30 -11 11 -8 26 4 19 7 -5 7 -2 0 11 -5 11 -12 30 -15 44 -4 21
-54 62 -76 65 -3 0 -4 6 -4 13 1 6 -1 12 -5 12 -9 0 -7 42 2 57 4 7 3 15 -3
18 -8 5 -8 11 0 20 8 9 8 15 0 20 -7 4 -7 12 0 25 13 24 13 33 -1 24 -8 -4 -8
0 0 15 9 16 9 21 -1 21 -8 0 -9 3 -3 8 13 9 15 82 2 82 -5 0 -4 6 2 13 6 8 8
17 5 20 -10 9 -10 157 -1 157 5 0 5 5 1 12 -4 7 -8 59 -8 117 -1 114 0 113
-81 137 -25 7 -792 266 -805 271 -8 3 -17 7 -20 8 -3 0 -30 9 -60 20 -30 11
-57 20 -60 20 -39 10 -59 18 -56 24 2 3 -9 7 -26 7 -17 1 -33 5 -37 10 -3 5
-10 9 -16 9 -22 0 -135 39 -135 47 0 4 -11 8 -25 8 -18 0 -25 5 -25 20 0 26
34 27 52 2 18 -25 77 -25 70 0 -2 10 1 18 7 18 7 0 9 -5 5 -11 -3 -6 8 -4 24
5 29 15 31 15 37 -5 4 -11 9 -18 12 -16 2 3 0 14 -5 24 -10 20 -5 46 8 38 5
-3 7 -13 3 -23 -3 -11 0 -9 11 5 16 22 18 22 42 7 13 -9 27 -14 31 -10 3 3 1
6 -6 6 -7 0 -9 4 -6 10 4 6 -1 7 -12 3 -16 -6 -17 -5 -4 11 13 16 16 16 26 3
10 -14 12 -14 21 0 8 13 14 14 33 3 13 -6 21 -8 18 -3 -3 4 1 17 9 28 12 16
16 17 27 4 6 -8 21 -21 32 -29 15 -10 17 -10 8 -1 -6 7 -10 19 -9 25 2 6 1 8
-1 4 -8 -15 -21 -8 -19 9 1 12 -5 17 -16 15 -10 -2 -18 3 -18 10 -1 7 -7 2
-14 -11 -8 -15 -16 -20 -20 -12 -4 6 -2 11 4 11 6 0 8 5 5 11 -9 13 -16 7 -19
-18 -2 -10 -10 -17 -20 -15 -9 2 -16 -3 -16 -10 0 -9 -3 -9 -10 2 -8 12 -10
12 -10 1 0 -11 -3 -11 -17 0 -14 12 -16 12 -8 0 6 -10 4 -12 -5 -6 -9 6 -11 4
-5 -6 7 -11 5 -11 -10 1 -17 13 -18 13 -10 0 6 -12 6 -13 -6 -2 -12 11 -12 14
1 22 8 5 18 6 24 3 5 -4 7 1 3 10 -3 9 -2 19 4 22 5 4 9 3 8 -2 -3 -19 2 -33
12 -33 6 0 9 7 5 15 -5 13 -2 14 15 4 16 -8 24 -8 33 1 6 6 7 11 1 10 -5 -2
-17 -2 -25 -1 -12 1 -12 3 -2 10 8 4 27 7 44 5 28 -4 29 -2 17 14 -13 16 -12
16 7 -1 20 -16 34 -14 34 5 0 5 -5 6 -12 2 -7 -4 -8 -3 -4 5 9 14 22 7 37 -21
9 -16 8 -19 -3 -13 -10 6 -10 5 1 -6 10 -11 15 -11 18 -1 7 19 23 4 16 -16 -3
-10 2 -7 12 7 18 23 19 23 33 5 13 -18 14 -18 7 4 -4 13 -2 22 4 22 10 0 15
-14 12 -33 -1 -5 3 -6 9 -2 6 4 7 13 1 23 -10 20 -3 45 9 37 5 -3 7 -12 4 -20
-6 -14 20 -16 31 -2 3 4 2 5 -2 2 -7 -5 -32 25 -33 39 0 5 7 3 15 -4 8 -7 15
-9 15 -4 0 4 7 -1 16 -12 14 -18 15 -18 4 4 -6 13 -7 22 -1 22 5 0 14 -12 20
-27 7 -18 10 -21 8 -8 -1 11 2 26 6 32 6 9 3 11 -9 6 -10 -4 -15 -2 -11 4 3 5
0 10 -8 10 -8 0 -15 -5 -15 -11 0 -6 -5 -4 -10 4 -5 8 -10 10 -10 3 0 -14 -26
-11 -42 5 -8 8 -5 10 15 6 22 -3 25 -1 21 13 -5 15 -4 16 5 3 6 -8 11 -11 11
-6 0 5 7 3 16 -5 13 -11 15 -11 14 2 -4 28 0 36 28 49 15 8 31 14 35 14 4 1
12 8 17 16 7 10 10 11 10 3 0 -24 -2 -28 -12 -25 -5 1 -7 -2 -3 -8 4 -6 1 -9
-7 -8 -8 2 -12 -4 -10 -16 2 -11 -1 -16 -10 -13 -7 2 -12 10 -10 16 3 13 -14
15 -23 2 -3 -6 3 -15 12 -21 16 -11 16 -11 -2 -6 -18 5 -18 5 -4 -6 9 -7 19
-20 22 -28 4 -9 5 -6 3 8 -5 25 6 29 24 7 7 -8 17 -15 22 -15 6 0 0 8 -12 18
l-22 18 22 24 c18 21 21 22 15 5 -11 -35 -10 -39 10 -42 17 -2 17 -2 3 5 -26
11 -6 34 29 35 23 1 29 6 25 19 -4 17 8 23 33 18 5 -1 1 8 -9 19 -22 24 -35
29 -16 6 15 -18 7 -19 -22 -4 -16 9 -19 8 -13 -2 5 -8 4 -10 -3 -5 -7 4 -12 2
-12 -3 0 -6 -4 -11 -9 -11 -5 0 -8 8 -6 18 1 9 8 16 14 14 6 -1 11 3 11 8 0 6
6 10 13 9 25 -3 38 1 32 11 -4 6 -12 7 -18 3 -7 -4 -7 -1 1 9 8 10 20 14 29
11 10 -4 14 -2 9 5 -9 15 14 26 27 13 9 -9 7 -10 -7 -5 -13 5 -17 4 -12 -4 3
-6 -2 -15 -11 -21 -14 -8 -15 -10 -3 -11 12 0 12 -2 2 -9 -10 -6 -10 -10 3
-21 13 -11 14 -10 9 5 -5 13 -4 16 5 11 7 -5 11 -16 8 -25 -2 -10 1 -18 8 -18
15 0 9 24 -12 48 -13 15 -9 29 9 29 5 0 6 -4 3 -10 -3 -6 1 -7 10 -3 13 5 14
7 3 14 -7 5 -9 9 -5 9 4 0 3 9 -3 20 -8 15 -7 21 8 29 12 6 23 6 33 -1 11 -8
9 -8 -6 -3 -14 4 -17 3 -9 -5 6 -6 18 -8 27 -4 15 5 14 8 -6 26 -12 11 -16 17
-9 13 7 -4 12 0 12 9 0 9 6 15 13 14 6 -2 11 3 9 9 -2 15 33 53 50 53 6 0 8 3
5 6 -7 7 23 64 33 64 3 0 6 -9 7 -21 1 -15 -3 -19 -13 -15 -9 3 -12 1 -9 -4 3
-6 0 -10 -7 -10 -8 0 -6 -5 5 -11 9 -5 17 -15 17 -21 0 -7 -4 -7 -13 1 -10 8
-19 7 -33 -5 -18 -14 -18 -15 3 -5 18 9 24 7 37 -10 l15 -22 -1 24 c-1 13 -6
30 -12 38 -9 11 -7 13 11 7 16 -5 26 0 42 23 19 26 19 30 5 35 -9 4 -19 4 -22
1 -3 -3 0 -5 6 -5 20 0 13 -16 -6 -17 -25 -2 -24 50 1 55 9 2 17 -1 17 -7 0
-6 5 -10 12 -9 7 2 13 -7 14 -19 1 -13 2 -28 3 -34 1 -11 57 -6 139 12 24 5
48 7 53 4 5 -4 9 -2 9 4 0 8 49 24 65 22 3 -1 11 3 18 9 6 6 40 27 74 48 35
20 84 55 110 77 26 22 51 40 55 40 5 0 8 4 7 8 0 5 15 27 34 50 46 56 121 180
132 217 14 51 40 120 44 120 14 0 21 299 9 370 -27 167 -108 332 -224 455 -35
37 -129 115 -139 115 -24 0 -30 34 -30 173 -1 115 2 147 13 147 26 0 90 40
122 76 112 129 93 316 -43 415 -54 39 -142 61 -202 51z m97 -151 c50 -19 92
-94 82 -148 -6 -33 -47 -88 -77 -105 -33 -17 -99 -14 -135 8 -41 23 -71 83
-66 130 9 99 100 152 196 115z m-4221 -24 c27 -16 56 -65 62 -103 11 -71 -60
-154 -132 -154 -95 0 -157 74 -143 169 5 37 59 97 94 104 33 7 95 -1 119 -16z
m3889 -767 c0 -5 -2 -10 -4 -10 -3 0 -8 5 -11 10 -3 6 -1 10 4 10 6 0 11 -4
11 -10z m-3669 -137 c13 -16 12 -17 -3 -4 -10 7 -18 15 -18 17 0 8 8 3 21 -13z
m-3 -22 c11 -6 8 -13 -10 -33 -13 -13 -17 -17 -10 -8 6 9 12 23 12 30 0 9 -5
7 -15 -6 -14 -18 -14 -18 -8 4 6 24 11 26 31 13z m-4 -63 c-15 -17 -16 -20 -3
-16 9 4 16 1 16 -7 0 -8 -7 -11 -16 -7 -12 4 -11 0 4 -19 15 -18 16 -20 3 -10
-11 8 -18 9 -18 3 0 -6 8 -16 18 -21 9 -6 12 -11 6 -11 -16 0 -37 27 -30 39 4
5 1 13 -5 16 -7 5 -3 15 12 31 28 30 39 32 13 2z m16 -114 c0 -2 -8 -1 -17 3
-17 6 -17 5 -1 -13 11 -13 14 -24 8 -34 -6 -9 -4 -20 3 -29 9 -11 9 -13 0 -8
-18 11 -22 -16 -4 -37 16 -19 16 -19 -10 -1 -22 17 -24 21 -12 34 10 10 11 16
4 21 -7 3 -13 16 -16 29 -2 12 0 19 6 16 5 -4 7 -10 4 -15 -3 -5 -1 -11 4 -14
15 -10 21 22 6 34 -8 7 -12 16 -9 21 3 5 0 9 -5 9 -6 0 -11 5 -11 10 0 6 11 3
25 -6 14 -9 25 -18 25 -20z m-16 -172 c-8 -12 -12 -27 -9 -32 3 -6 2 -10 -3
-10 -5 0 -12 9 -15 20 -3 11 -1 17 4 14 19 -11 21 27 3 48 l-19 22 27 -20 c25
-18 26 -21 12 -42z m13 -56 c0 -9 -7 -12 -16 -8 -13 4 -12 1 3 -16 27 -32 14
-27 -15 5 -13 14 -19 24 -14 20 6 -3 17 -2 25 4 8 5 15 9 16 9 0 0 1 -6 1 -14z
m-31 -53 c-4 -10 -2 -13 8 -10 8 3 17 0 20 -8 4 -11 0 -12 -16 -6 -12 4 -22
17 -23 29 -1 12 2 19 7 16 5 -4 7 -13 4 -21z m11 -39 c-3 -3 -12 -4 -19 -1 -8
3 -5 6 6 6 11 1 17 -2 13 -5z m3 -21 c-1 -13 -30 -48 -30 -36 0 7 5 15 10 18
6 4 8 11 5 16 -4 5 -1 9 4 9 6 0 11 -3 11 -7z m15 -33 c-3 -5 -11 -10 -16 -10
-6 0 -7 5 -4 10 3 6 11 10 16 10 6 0 7 -4 4 -10z m-24 -27 c-11 -4 -11 -7 0
-13 10 -7 10 -11 0 -24 -15 -17 -1 -22 15 -6 6 6 10 3 10 -9 0 -13 -5 -17 -16
-13 -28 10 -31 14 -20 27 8 9 8 15 0 20 -13 8 -3 25 13 24 8 0 7 -3 -2 -6z m6
-79 c-3 -3 -12 -4 -19 -1 -8 3 -5 6 6 6 11 1 17 -2 13 -5z m3 -21 c-1 -13 -30
-48 -30 -36 0 7 5 15 10 18 6 4 8 11 5 16 -4 5 -1 9 4 9 6 0 11 -3 11 -7z m15
-33 c-3 -5 -11 -10 -16 -10 -6 0 -7 5 -4 10 3 6 11 10 16 10 6 0 7 -4 4 -10z
m-25 -30 c-8 -5 -10 -10 -4 -10 19 0 25 -29 11 -51 -10 -17 -9 -22 6 -33 16
-12 16 -14 1 -20 -15 -6 -15 -8 0 -30 14 -22 14 -25 0 -30 -9 -4 -14 -13 -10
-21 3 -8 2 -15 -3 -15 -5 0 -11 9 -14 20 -3 10 0 18 5 17 6 -1 13 4 16 12 3 8
0 11 -7 7 -7 -5 -9 -1 -4 10 4 12 3 15 -5 10 -7 -4 -12 -3 -12 2 0 6 7 13 16
16 11 4 13 10 7 19 -17 21 -23 47 -11 44 6 -1 13 4 16 12 3 9 0 11 -8 6 -8 -5
-11 -4 -6 3 3 6 2 13 -4 17 -13 8 -3 25 13 25 7 0 6 -4 -3 -10z m30 -70 c0 -5
-5 -10 -11 -10 -5 0 -7 5 -4 10 3 6 8 10 11 10 2 0 4 -4 4 -10z m-3 -154 c0
-8 -6 -12 -15 -9 -11 5 -11 7 0 14 7 5 13 9 14 9 0 0 1 -6 1 -14z m-17 -20 c0
-2 -7 -6 -15 -10 -8 -3 -15 -1 -15 4 0 6 7 10 15 10 8 0 15 -2 15 -4z m20 -66
c0 -5 -5 -10 -11 -10 -5 0 -7 5 -4 10 3 6 8 10 11 10 2 0 4 -4 4 -10z m3605
-269 c-3 -6 -11 -11 -17 -11 -6 0 -6 6 2 15 14 17 26 13 15 -4z m-272 -289
c-4 -18 -35 -23 -49 -9 -7 6 10 11 29 8 4 0 7 4 7 9 0 6 4 10 9 10 5 0 7 -8 4
-18z m-2768 -82 c4 6 12 7 18 3 12 -7 17 -9 36 -12 5 0 13 -10 16 -21 3 -11
11 -20 16 -20 6 0 7 5 4 10 -3 6 -3 10 2 10 12 -1 43 -26 43 -36 0 -4 -5 -3
-12 4 -7 7 -17 12 -22 12 -6 -1 0 -10 14 -21 l24 -20 8 20 c8 24 14 26 24 9 4
-7 3 -8 -4 -4 -8 4 -12 0 -12 -12 0 -27 11 -34 28 -19 10 8 13 8 9 1 -4 -7 0
-14 8 -18 8 -3 17 -1 20 4 4 6 1 10 -6 10 -7 0 -10 3 -6 6 3 3 11 3 17 -1 8
-5 8 -10 0 -20 -7 -8 -8 -20 -4 -26 5 -8 3 -9 -6 -4 -9 5 -11 4 -6 -4 4 -6 12
-9 17 -5 5 3 7 9 4 14 -9 15 15 22 31 9 17 -14 38 -21 67 -20 17 0 22 -10 10
-22 -3 -4 -12 -2 -18 3 -8 7 -18 3 -31 -12 -10 -12 -14 -18 -8 -15 7 4 14 0
17 -7 4 -10 -1 -14 -14 -13 -10 1 -19 8 -19 15 0 9 -6 12 -15 8 -9 -3 -18 1
-21 9 -4 8 -13 15 -21 15 -8 0 -12 3 -9 8 2 4 -2 18 -11 32 -8 14 -12 17 -9 8
8 -26 -11 -31 -27 -7 -10 13 -17 17 -22 9 -5 -8 -10 -8 -20 0 -10 8 -14 8 -17
-1 -3 -9 -13 -7 -36 6 -17 10 -28 23 -25 28 3 5 9 3 14 -4 7 -11 9 -10 9 4 0
9 -4 17 -10 17 -5 0 -29 18 -52 41 -24 23 -33 36 -21 30 15 -7 24 -8 28 -1z
m2508 -2 c-6 -7 -10 -21 -10 -30 0 -15 3 -16 16 -6 26 20 27 21 6 14 -16 -6
-18 -5 -7 5 14 15 36 0 24 -16 -14 -21 -61 -45 -67 -35 -4 6 -10 8 -14 6 -4
-3 -7 7 -8 22 -1 15 1 20 4 12 11 -29 40 -39 40 -15 0 9 -6 14 -12 11 -6 -2
-12 2 -12 10 0 7 4 11 8 9 3 -3 12 2 19 10 15 18 27 20 13 3z m-2298 -68 c-3
-5 -12 -10 -18 -10 -7 0 -6 4 3 10 19 12 23 12 15 0z m60 -31 c-4 -5 -12 -9
-18 -8 -9 0 -8 2 1 6 6 2 9 10 6 15 -4 7 -2 8 5 4 6 -4 9 -12 6 -17z m1975 17
c0 -2 -7 -7 -16 -10 -8 -3 -12 -2 -9 4 6 10 25 14 25 6z m-46 -28 c-2 -13 -1
-17 2 -10 5 10 10 8 21 -7 8 -12 19 -18 25 -15 7 5 8 2 3 -5 -5 -9 -11 -9 -17
-3 -12 12 -40 4 -33 -9 8 -11 -33 -32 -47 -23 -6 4 -19 -4 -29 -17 -15 -19
-19 -21 -19 -7 0 9 8 22 18 27 15 9 9 13 -14 10 -4 0 -10 5 -15 13 -6 10 -11
10 -21 0 -9 -9 -8 -12 6 -12 9 0 14 -5 11 -10 -4 -6 -11 -7 -17 -4 -7 4 -8 2
-4 -5 4 -6 12 -9 17 -6 5 4 9 -2 9 -11 0 -15 -4 -14 -25 6 -34 32 -51 33 -64
4 -10 -23 -29 -24 -57 -3 -6 5 -15 5 -19 1 -5 -4 -5 -1 0 7 6 10 2 11 -15 6
-15 -5 -20 -4 -16 4 9 14 46 14 46 0 0 -5 4 -8 10 -4 5 3 6 13 3 22 -5 12 -2
15 14 11 11 -3 31 0 44 8 17 8 28 9 36 2 9 -7 21 -5 40 8 16 10 30 17 32 15 2
-1 8 3 12 11 7 10 9 8 9 -6 0 -12 -5 -16 -14 -13 -8 3 -19 0 -25 -7 -8 -9 -1
-12 29 -12 34 0 38 2 27 15 -6 9 -1 7 12 -4 l24 -20 -7 22 c-4 13 -4 27 -1 33
10 16 13 12 9 -12z m-1889 -7 c-3 -5 2 -12 10 -14 12 -4 12 -5 -1 -3 -19 1
-32 26 -14 26 6 0 9 -4 5 -9z m48 -8 c-3 -7 -6 -13 -8 -13 -2 0 -5 6 -8 13 -3
8 1 14 8 14 7 0 11 -6 8 -14z m24 -5 c-3 -8 -6 -5 -6 6 -1 11 2 17 5 13 3 -3
4 -12 1 -19z m1693 12 c0 -5 -5 -10 -11 -10 -5 0 -7 5 -4 10 3 6 8 10 11 10 2
0 4 -4 4 -10z m304 -2 c-3 -4 -9 -8 -15 -8 -5 0 -9 4 -9 8 0 5 7 9 15 9 8 0
12 -4 9 -9z m-1926 -23 c-3 -3 -9 2 -12 12 -6 14 -5 15 5 6 7 -7 10 -15 7 -18z
m1497 5 c-3 -5 -16 -10 -28 -9 -20 1 -20 2 3 9 14 4 26 8 28 9 2 1 0 -3 -3 -9z
m-1421 -15 c-4 -8 -8 -15 -10 -15 -2 0 -4 7 -4 15 0 8 4 15 10 15 5 0 7 -7 4
-15z m1331 -4 c-3 -6 -11 -11 -16 -11 -5 0 -4 6 3 14 14 16 24 13 13 -3z m35
-1 c0 -5 -2 -10 -4 -10 -3 0 -8 5 -11 10 -3 6 -1 10 4 10 6 0 11 -4 11 -10z
m1570 -2014 c0 -3 -4 -8 -10 -11 -5 -3 -10 -1 -10 4 0 6 5 11 10 11 6 0 10 -2
10 -4z m-4402 -128 c8 -10 4 -13 -13 -14 -16 -1 -22 2 -18 12 6 17 17 18 31 2z"/>
<path d="M2236 3831 c-4 -5 12 -24 34 -42 22 -18 38 -39 36 -46 -6 -16 10 -27
19 -13 5 8 11 8 20 0 10 -8 15 -8 20 0 4 7 -3 19 -16 28 -13 9 -36 30 -51 46
-16 17 -28 27 -28 22 0 -5 -6 -3 -14 3 -9 8 -16 8 -20 2z m34 -16 c3 -1 23
-19 45 -40 22 -22 36 -37 31 -33 -5 4 -17 2 -25 -4 -13 -10 -14 -10 -4 1 10
11 3 21 -33 48 -40 31 -62 55 -31 36 6 -4 14 -8 17 -8z"/>
<path d="M2390 3720 c6 -11 13 -20 16 -20 2 0 0 9 -6 20 -6 11 -13 20 -16 20
-2 0 0 -9 6 -20z"/>
<path d="M2478 3701 c11 -7 10 -9 -3 -15 -23 -8 -8 -27 18 -22 12 3 25 5 30 5
4 1 7 6 7 12 0 5 -4 8 -9 5 -5 -3 -14 1 -21 9 -7 8 -18 15 -24 15 -7 0 -6 -4
2 -9z m26 -19 c2 -4 -5 -9 -17 -9 -17 -2 -19 0 -7 7 18 12 18 12 24 2z"/>
<path d="M4251 3686 c-14 -8 -32 -11 -40 -8 -9 3 -13 2 -9 -3 4 -4 3 -14 -4
-22 -8 -11 -7 -12 6 -7 10 4 16 1 16 -7 0 -11 2 -11 9 1 6 8 7 18 5 22 -3 4 0
9 5 9 6 1 17 2 24 3 6 1 18 -3 26 -8 12 -9 12 -7 2 12 -6 12 -13 22 -14 22 -1
-1 -13 -7 -26 -14z"/>
<path d="M4354 3683 c3 -4 22 -7 41 -8 20 -2 34 0 31 3 -3 3 -22 6 -42 8 -19
1 -33 0 -30 -3z"/>
<path d="M1830 5961 c0 -6 4 -13 10 -16 6 -3 7 1 4 9 -7 18 -14 21 -14 7z"/>
<path d="M5176 5878 c3 -5 10 -6 15 -3 13 9 11 12 -6 12 -8 0 -12 -4 -9 -9z"/>
<path d="M5255 5860 c-3 -5 -1 -10 4 -10 6 0 11 5 11 10 0 6 -2 10 -4 10 -3 0
-8 -4 -11 -10z"/>
<path d="M1657 5819 c7 -7 15 -10 18 -7 3 3 -2 9 -12 12 -14 6 -15 5 -6 -5z"/>
<path d="M1635 5800 c-3 -5 -1 -10 4 -10 6 0 11 5 11 10 0 6 -2 10 -4 10 -3 0
-8 -4 -11 -10z"/>
<path d="M1665 5789 c-7 -11 2 -29 15 -29 5 0 14 8 19 18 7 14 6 18 -10 19
-10 1 -21 -2 -24 -8z m25 -9 c0 -5 -4 -10 -10 -10 -5 0 -10 5 -10 10 0 6 5 10
10 10 6 0 10 -4 10 -10z"/>
<path d="M1634 5755 c1 -14 8 -30 15 -37 9 -9 12 -9 7 -1 -3 6 -2 14 4 18 6 4
5 13 -3 25 -16 27 -24 25 -23 -5z m21 -4 c3 -5 2 -12 -3 -15 -5 -3 -9 1 -9 9
0 17 3 19 12 6z"/>
<path d="M1640 5690 c-9 -6 -10 -10 -3 -10 6 0 15 5 18 10 8 12 4 12 -15 0z"/>
<path d="M1635 5641 c-3 -5 -2 -12 3 -15 5 -3 9 1 9 9 0 17 -3 19 -12 6z"/>
<path d="M5309 5578 c-5 -9 -3 -96 1 -92 5 6 8 94 3 94 -2 0 -4 -1 -4 -2z"/>
<path d="M5296 5261 c-4 -5 -2 -12 3 -15 5 -4 12 -2 15 3 4 5 2 12 -3 15 -5 4
-12 2 -15 -3z"/>
<path d="M5295 5160 c-3 -5 -1 -10 4 -10 6 0 11 5 11 10 0 6 -2 10 -4 10 -3 0
-8 -4 -11 -10z"/>
<path d="M5290 5136 c0 -2 7 -7 16 -10 8 -3 12 -2 9 4 -6 10 -25 14 -25 6z"/>
<path d="M5299 5078 c-4 -9 -3 -116 1 -112 3 3 5 30 5 60 0 47 -1 61 -6 52z"/>
<path d="M5297 4915 c-4 -8 -3 -16 1 -19 4 -3 9 4 9 15 2 23 -3 25 -10 4z"/>
<path d="M5299 4868 c-6 -21 -5 -38 1 -38 5 0 8 9 7 20 -1 17 -5 26 -8 18z"/>
<path d="M5297 4813 c-6 -10 -2 -71 4 -78 3 -2 5 15 5 40 -1 46 -2 50 -9 38z"/>
<path d="M5286 4681 c-3 -5 0 -14 7 -19 10 -8 13 -6 14 9 2 19 -11 26 -21 10z"/>
<path d="M5299 4628 c-1 -2 -2 -15 -3 -30 0 -14 -4 -30 -8 -33 -4 -4 -3 -15 2
-25 5 -10 6 -20 3 -24 -3 -3 -2 -6 3 -6 6 0 10 27 10 60 0 51 -2 68 -7 58z"/>
<path d="M5299 4418 c-5 -18 -6 -38 -1 -34 7 8 12 36 6 36 -2 0 -4 -1 -5 -2z"/>
<path d="M5294 4335 c0 -19 2 -32 5 -29 8 8 10 64 2 64 -4 0 -7 -16 -7 -35z"/>
<path d="M1664 4285 c-5 -12 -10 -13 -20 -4 -10 8 -14 8 -14 0 0 -6 5 -11 11
-11 8 0 8 -4 0 -14 -9 -11 -9 -16 0 -21 8 -6 7 -10 -5 -17 -14 -8 -15 -13 -5
-24 6 -8 16 -14 22 -14 6 0 2 7 -9 15 -16 12 -16 14 -3 15 18 0 42 -23 34 -33
-3 -4 -2 -5 2 -2 3 3 13 -1 22 -7 13 -10 14 -10 4 1 -6 7 -10 19 -9 25 2 6 1
8 -1 3 -3 -4 -9 -4 -14 -1 -6 3 -6 11 2 20 14 17 29 9 29 -17 0 -10 4 -19 10
-19 5 0 7 8 4 18 -4 12 0 11 15 -7 12 -12 18 -27 15 -32 -3 -5 0 -9 5 -9 6 0
11 5 11 11 0 6 7 8 16 5 9 -3 12 -2 9 5 -4 6 -14 8 -22 5 -11 -4 -13 -2 -9 9
3 8 2 14 -2 12 -4 -1 -18 6 -32 16 -19 13 -21 17 -7 17 9 0 17 5 17 11 0 5 -4
8 -9 4 -5 -3 -13 0 -17 6 -4 7 -15 1 -30 -17 -13 -16 -23 -24 -24 -17 0 6 5
15 10 18 6 4 8 10 5 15 -3 5 4 12 15 15 17 5 19 10 9 21 -15 18 -28 18 -35 -1z
m13 -12 c-8 -10 -16 -21 -16 -25 -1 -8 -9 -11 -13 -5 -4 5 28 47 36 47 5 0 2
-8 -7 -17z"/>
<path d="M5297 4206 c-5 -12 -3 -15 5 -10 8 5 9 1 4 -12 -5 -14 -4 -16 4 -7 8
7 9 17 3 28 -9 16 -10 16 -16 1z"/>
<path d="M1546 4202 c-2 -4 4 -8 14 -8 10 0 16 4 14 8 -3 4 -9 8 -14 8 -5 0
-11 -4 -14 -8z"/>
<path d="M5266 4164 c-5 -14 -4 -15 9 -4 17 14 19 20 6 20 -5 0 -12 -7 -15
-16z"/>
<path d="M1653 4155 c0 -7 8 -10 19 -7 10 2 18 6 18 7 0 1 -8 5 -18 7 -11 3
-19 0 -19 -7z"/>
<path d="M1714 4133 c23 -27 22 -27 29 -8 4 8 1 17 -5 21 -7 4 -8 3 -4 -4 10
-16 -6 -15 -24 1 -8 6 -6 2 4 -10z"/>
<path d="M5165 4140 c-3 -5 -3 -10 1 -10 4 0 -2 -10 -14 -23 -17 -18 -19 -24
-7 -24 8 0 13 2 10 5 -2 2 3 11 11 19 13 14 16 13 28 -2 10 -14 15 -15 21 -5
5 8 4 11 -2 7 -6 -4 -13 0 -16 7 -8 21 16 26 31 7 11 -14 11 -13 2 7 -9 18
-14 20 -30 12 -24 -13 -33 -13 -25 0 3 6 4 10 1 10 -3 0 -8 -4 -11 -10z"/>
<path d="M1830 4125 c0 -8 4 -15 10 -15 5 0 7 7 4 15 -4 8 -8 15 -10 15 -2 0
-4 -7 -4 -15z"/>
<path d="M1693 4111 c0 -11 5 -18 9 -15 4 3 5 11 1 19 -7 21 -12 19 -10 -4z"/>
<path d="M1805 4120 c-3 -5 -1 -10 4 -10 6 0 11 5 11 10 0 6 -2 10 -4 10 -3 0
-8 -4 -11 -10z"/>
<path d="M1820 4093 c0 -7 5 -15 10 -18 6 -4 8 -11 5 -16 -4 -5 -1 -9 4 -9 15
0 13 11 -4 34 -8 11 -15 15 -15 9z"/>
<path d="M1850 4092 c0 -8 9 -16 20 -19 10 -3 22 -14 25 -24 7 -21 20 -25 31
-7 4 7 3 8 -4 4 -7 -4 -17 3 -23 18 -7 14 -16 23 -22 19 -5 -3 -13 1 -18 8 -7
11 -9 12 -9 1z"/>
<path d="M1790 4079 c0 -5 5 -7 10 -4 6 3 10 8 10 11 0 2 -4 4 -10 4 -5 0 -10
-5 -10 -11z"/>
<path d="M5170 4080 c0 -5 5 -10 10 -10 6 0 10 5 10 10 0 6 -4 10 -10 10 -5 0
-10 -4 -10 -10z"/>
<path d="M1735 4071 c-3 -5 -2 -12 3 -15 5 -3 9 1 9 9 0 17 -3 19 -12 6z"/>
<path d="M5210 4059 c0 -5 5 -7 10 -4 6 3 10 8 10 11 0 2 -4 4 -10 4 -5 0 -10
-5 -10 -11z"/>
<path d="M5098 4036 c12 -15 19 -32 17 -36 -3 -5 -1 -11 4 -14 5 -4 8 2 6 11
-4 25 15 46 29 34 8 -7 12 -4 12 9 0 18 -2 18 -24 4 -22 -14 -25 -14 -45 3
-20 18 -20 17 1 -11z"/>
<path d="M1770 4039 c0 -5 5 -7 10 -4 6 3 10 8 10 11 0 2 -4 4 -10 4 -5 0 -10
-5 -10 -11z"/>
<path d="M1860 4039 c0 -5 5 -7 10 -4 6 3 10 8 10 11 0 2 -4 4 -10 4 -5 0 -10
-5 -10 -11z"/>
<path d="M1896 4001 c-3 -4 6 -6 20 -3 16 3 24 0 22 -8 -2 -7 8 -14 21 -16
l24 -4 -26 20 c-26 21 -52 26 -61 11z"/>
<path d="M5094 3976 c1 -8 5 -18 8 -22 4 -3 5 1 4 10 -1 8 -5 18 -8 22 -4 3
-5 -1 -4 -10z"/>
<path d="M2015 3960 c-3 -5 -1 -10 4 -10 6 0 11 5 11 10 0 6 -2 10 -4 10 -3 0
-8 -4 -11 -10z"/>
<path d="M1855 3940 c-3 -5 -1 -10 4 -10 6 0 11 5 11 10 0 6 -2 10 -4 10 -3 0
-8 -4 -11 -10z"/>
<path d="M1906 3938 c3 -5 10 -6 15 -3 13 9 11 12 -6 12 -8 0 -12 -4 -9 -9z"/>
<path d="M1948 3943 c10 -4 10 -8 0 -21 -12 -15 -11 -16 4 -3 19 14 15 32 -5
30 -8 0 -8 -2 1 -6z"/>
<path d="M1987 3926 c-4 -10 -1 -13 9 -9 15 6 19 23 5 23 -5 0 -11 -7 -14 -14z"/>
<path d="M1914 3909 c-3 -6 -2 -15 3 -20 5 -5 9 -1 9 11 0 23 -2 24 -12 9z"/>
<path d="M5033 3905 c0 -8 4 -12 9 -9 5 3 6 10 3 15 -9 13 -12 11 -12 -6z"/>
<path d="M1996 3878 c3 -5 10 -6 15 -3 13 9 11 12 -6 12 -8 0 -12 -4 -9 -9z"/>
<path d="M1970 3859 c0 -5 5 -7 10 -4 6 3 10 8 10 11 0 2 -4 4 -10 4 -5 0 -10
-5 -10 -11z"/>
<path d="M2088 3863 c6 -2 9 -10 6 -15 -4 -7 -2 -8 5 -4 13 9 5 26 -12 25 -9
0 -8 -2 1 -6z"/>
<path d="M2127 3839 c6 -23 9 -24 16 -5 3 8 0 17 -7 19 -10 4 -12 -1 -9 -14z"/>
<path d="M2055 3840 c3 -5 8 -10 11 -10 2 0 4 5 4 10 0 6 -5 10 -11 10 -5 0
-7 -4 -4 -10z"/>
<path d="M2150 3820 c0 -5 7 -7 15 -4 8 4 15 8 15 10 0 2 -7 4 -15 4 -8 0 -15
-4 -15 -10z"/>
<path d="M4933 3807 c0 -8 6 -14 14 -14 9 0 10 4 2 14 -6 7 -12 13 -14 13 -1
0 -2 -6 -2 -13z"/>
<path d="M2171 3794 c0 -11 3 -14 6 -6 3 7 2 16 -1 19 -3 4 -6 -2 -5 -13z"/>
<path d="M2070 3779 c0 -5 5 -7 10 -4 6 3 10 8 10 11 0 2 -4 4 -10 4 -5 0 -10
-5 -10 -11z"/>
<path d="M2190 3780 c0 -6 7 -10 15 -10 8 0 15 2 15 4 0 2 -7 6 -15 10 -8 3
-15 1 -15 -4z"/>
<path d="M4825 3759 c-3 -4 2 -6 10 -5 21 3 28 13 10 13 -9 0 -18 -4 -20 -8z"/>
<path d="M2133 3745 c0 -8 4 -12 9 -9 5 3 6 10 3 15 -9 13 -12 11 -12 -6z"/>
<path d="M2195 3729 c-4 -6 -5 -12 -2 -15 2 -3 7 2 10 11 7 17 1 20 -8 4z"/>
<path d="M4793 3725 c0 -8 4 -12 9 -9 5 3 6 10 3 15 -9 13 -12 11 -12 -6z"/>
<path d="M4713 3717 c-3 -4 -2 -11 1 -14 3 -4 6 -1 6 5 0 6 11 9 24 6 14 -2
27 -1 29 3 3 5 -8 8 -25 8 -16 1 -32 -3 -35 -8z"/>
<path d="M4839 3713 c-13 -16 -12 -17 4 -4 9 7 17 15 17 17 0 8 -8 3 -21 -13z"/>
<path d="M2234 3706 c1 -8 5 -18 8 -22 4 -3 5 1 4 10 -1 8 -5 18 -8 22 -4 3
-5 -1 -4 -10z"/>
<path d="M2268 3703 c10 -4 10 -8 0 -21 -12 -15 -11 -16 4 -3 19 14 15 32 -5
30 -8 0 -8 -2 1 -6z"/>
<path d="M4630 3700 c0 -5 5 -10 10 -10 6 0 10 5 10 10 0 6 -4 10 -10 10 -5 0
-10 -4 -10 -10z"/>
<path d="M2640 3687 c-17 -13 -20 -37 -5 -37 6 0 10 3 10 8 0 4 4 13 9 20 11
18 4 23 -14 9z"/>
<path d="M4570 3682 c0 -4 10 -9 22 -9 18 -2 20 0 8 7 -18 12 -30 13 -30 2z"/>
<path d="M2276 3662 c-2 -4 -1 -14 4 -22 7 -11 9 -9 7 8 -1 24 -3 26 -11 14z"/>
<path d="M2414 3651 c20 -22 26 -25 26 -13 0 4 -10 13 -22 21 -23 14 -23 14
-4 -8z"/>
<path d="M4484 3659 c-4 -7 -3 -9 4 -5 5 3 13 0 15 -6 4 -9 6 -10 6 -1 1 17
-16 25 -25 12z"/>
<path d="M4555 3649 c-4 -6 -5 -12 -2 -15 2 -3 7 2 10 11 7 17 1 20 -8 4z"/>
<path d="M4519 3633 c-13 -16 -12 -17 4 -4 9 7 17 15 17 17 0 8 -8 3 -21 -13z"/>
<path d="M4266 3632 c-3 -5 1 -9 9 -9 8 0 12 4 9 9 -3 4 -7 8 -9 8 -2 0 -6 -4
-9 -8z"/>
<path d="M4395 3621 c-3 -6 5 -15 17 -21 21 -10 21 -10 6 3 -10 8 -15 17 -11
20 3 4 4 7 0 7 -3 0 -8 -4 -12 -9z"/>
<path d="M4570 3625 c0 -7 30 -13 34 -7 3 4 -4 9 -15 9 -10 1 -19 0 -19 -2z"/>
<path d="M2473 3607 c0 -8 6 -14 14 -14 9 0 10 4 2 14 -6 7 -12 13 -14 13 -1
0 -2 -6 -2 -13z"/>
<path d="M2555 3610 c-3 -5 -1 -10 4 -10 6 0 11 5 11 10 0 6 -2 10 -4 10 -3 0
-8 -4 -11 -10z"/>
<path d="M1210 2686 c0 -2 7 -7 16 -10 8 -3 12 -2 9 4 -6 10 -25 14 -25 6z"/>
<path d="M1275 2571 c-3 -5 -2 -12 3 -15 5 -3 9 1 9 9 0 17 -3 19 -12 6z"/>
<path d="M1250 2420 c0 -5 5 -10 11 -10 5 0 7 5 4 10 -3 6 -8 10 -11 10 -2 0
-4 -4 -4 -10z"/>
<path d="M5739 2268 c-5 -18 -6 -38 -1 -34 7 8 12 36 6 36 -2 0 -4 -1 -5 -2z"/>
<path d="M5710 2200 c0 -5 5 -10 10 -10 6 0 10 5 10 10 0 6 -4 10 -10 10 -5 0
-10 -4 -10 -10z"/>
<path d="M5706 2122 c-3 -5 1 -9 9 -9 8 0 15 4 15 9 0 4 -4 8 -9 8 -6 0 -12
-4 -15 -8z"/>
<path d="M5710 2090 c-8 -5 -12 -12 -9 -15 4 -3 12 1 19 10 14 17 11 19 -10 5z"/>
<path d="M5716 2034 c-8 -20 -8 -24 2 -24 4 0 8 9 9 20 2 24 -3 26 -11 4z"/>
<path d="M5710 1960 c0 -5 5 -10 10 -10 6 0 10 5 10 10 0 6 -4 10 -10 10 -5 0
-10 -4 -10 -10z"/>
<path d="M5709 1883 c-13 -16 -12 -17 4 -4 16 13 21 21 13 21 -2 0 -10 -8 -17
-17z"/>
<path d="M5715 1859 c-3 -4 2 -6 10 -5 21 3 28 13 10 13 -9 0 -18 -4 -20 -8z"/>
<path d="M5710 1810 c-6 -11 -8 -20 -6 -20 3 0 10 9 16 20 6 11 8 20 6 20 -3
0 -10 -9 -16 -20z"/>
<path d="M5708 1773 c7 -3 16 -2 19 1 4 3 -2 6 -13 5 -11 0 -14 -3 -6 -6z"/>
<path d="M5730 1740 c0 -5 5 -10 11 -10 5 0 7 5 4 10 -3 6 -8 10 -11 10 -2 0
-4 -4 -4 -10z"/>
<path d="M5713 1638 c1 -7 -4 -12 -11 -10 -8 1 -11 -2 -7 -8 5 -8 11 -8 21 1
7 6 11 15 8 20 -8 13 -14 11 -11 -3z"/>
<path d="M1256 1573 c-4 -11 -1 -11 14 -3 24 13 25 17 5 17 -8 0 -16 -6 -19
-14z"/>
<path d="M5695 1580 c-3 -5 -1 -10 4 -10 6 0 11 5 11 10 0 6 -2 10 -4 10 -3 0
-8 -4 -11 -10z"/>
<path d="M1215 1539 c-3 -4 2 -6 10 -5 21 3 28 13 10 13 -9 0 -18 -4 -20 -8z"/>
<path d="M5654 1535 c-4 -8 -11 -12 -17 -8 -6 3 -7 1 -3 -5 10 -16 14 -15 26
8 6 11 8 20 5 20 -3 0 -8 -7 -11 -15z"/>
<path d="M1254 1462 c4 -3 14 -7 22 -8 9 -1 13 0 10 4 -4 3 -14 7 -22 8 -9 1
-13 0 -10 -4z"/>
<path d="M5610 1361 c0 -6 4 -13 10 -16 6 -3 7 1 4 9 -7 18 -14 21 -14 7z"/>
<path d="M1335 980 c-3 -5 -1 -10 4 -10 6 0 11 5 11 10 0 6 -2 10 -4 10 -3 0
-8 -4 -11 -10z"/>
<path d="M1417 973 c6 -15 4 -16 -8 -6 -13 10 -16 10 -16 -2 0 -8 3 -13 5 -10
3 3 10 1 16 -5 8 -6 12 -3 13 10 1 11 -2 22 -8 25 -5 4 -6 -2 -2 -12z"/>
<path d="M5570 980 c0 -5 5 -10 11 -10 5 0 7 5 4 10 -3 6 -8 10 -11 10 -2 0
-4 -4 -4 -10z"/>
<path d="M1446 963 c-6 -14 -5 -15 5 -6 7 7 10 15 7 18 -3 3 -9 -2 -12 -12z"/>
<path d="M5470 970 c-8 -5 -12 -11 -10 -14 3 -2 14 2 24 10 22 15 10 19 -14 4z"/>
<path d="M5406 958 c3 -5 10 -6 15 -3 13 9 11 12 -6 12 -8 0 -12 -4 -9 -9z"/>
<path d="M1477 929 c4 -13 8 -18 11 -10 2 7 -1 18 -6 23 -8 8 -9 4 -5 -13z"/>
<path d="M5430 941 c0 -6 4 -12 8 -15 5 -3 9 1 9 9 0 8 -4 15 -9 15 -4 0 -8
-4 -8 -9z"/>
<path d="M1454 915 c0 -13 3 -22 7 -19 8 4 6 30 -2 38 -3 3 -5 -5 -5 -19z"/>
<path d="M1567 926 c-4 -10 -3 -15 3 -11 6 3 10 1 10 -6 0 -7 3 -10 6 -6 3 3
2 13 -4 22 -8 16 -9 16 -15 1z"/>
<path d="M1597 925 c3 -8 9 -12 14 -9 12 7 11 11 -5 17 -10 4 -13 1 -9 -8z"/>
<path d="M5356 923 c-6 -14 -5 -15 5 -6 7 7 10 15 7 18 -3 3 -9 -2 -12 -12z"/>
<path d="M5556 918 c3 -5 10 -6 15 -3 13 9 11 12 -6 12 -8 0 -12 -4 -9 -9z"/>
<path d="M1640 911 c0 -7 -5 -9 -10 -6 -6 3 -13 -1 -16 -9 -3 -9 -10 -14 -14
-11 -10 6 -7 -22 4 -32 4 -4 7 -3 5 2 -4 16 12 45 21 40 10 -6 24 14 16 22 -3
4 -6 1 -6 -6z"/>
<path d="M5260 912 c0 -6 -8 -9 -17 -6 -15 5 -16 4 -3 -5 16 -11 40 3 27 16
-4 3 -7 1 -7 -5z"/>
<path d="M5294 906 c11 -9 24 -16 30 -16 12 0 7 5 -24 19 -24 11 -24 11 -6 -3z"/>
<path d="M5355 900 c-16 -7 -17 -9 -3 -9 9 -1 20 4 23 9 7 11 7 11 -20 0z"/>
<path d="M1555 889 c-4 -6 -5 -12 -2 -15 2 -3 7 2 10 11 7 17 1 20 -8 4z"/>
<path d="M1650 880 c0 -5 5 -10 10 -10 6 0 10 5 10 10 0 6 -4 10 -10 10 -5 0
-10 -4 -10 -10z"/>
<path d="M5170 880 c0 -5 5 -10 11 -10 5 0 7 5 4 10 -3 6 -8 10 -11 10 -2 0
-4 -4 -4 -10z"/>
<path d="M5205 880 c-3 -6 1 -7 9 -4 18 7 21 14 7 14 -6 0 -13 -4 -16 -10z"/>
<path d="M5385 880 c-3 -6 1 -7 9 -4 18 7 21 14 7 14 -6 0 -13 -4 -16 -10z"/>
<path d="M1493 865 c0 -8 4 -12 9 -9 5 3 6 10 3 15 -9 13 -12 11 -12 -6z"/>
<path d="M1750 874 c0 -5 6 -18 13 -29 12 -15 15 -16 22 -4 5 8 4 10 0 6 -5
-4 -15 3 -22 15 -7 13 -12 18 -13 12z"/>
<path d="M5135 870 c-7 -12 19 -24 37 -17 7 3 3 6 -10 6 -13 1 -20 5 -17 11 3
6 4 10 1 10 -3 0 -8 -5 -11 -10z"/>
<path d="M5230 870 c-9 -6 -10 -10 -3 -10 6 0 15 5 18 10 8 12 4 12 -15 0z"/>
<path d="M5090 860 c-9 -6 -10 -10 -3 -10 6 0 15 5 18 10 8 12 4 12 -15 0z"/>
<path d="M5307 859 c7 -7 15 -10 18 -7 3 3 -2 9 -12 12 -14 6 -15 5 -6 -5z"/>
<path d="M5346 858 c3 -5 10 -6 15 -3 13 9 11 12 -6 12 -8 0 -12 -4 -9 -9z"/>
<path d="M1821 844 c0 -11 3 -14 6 -6 3 7 2 16 -1 19 -3 4 -6 -2 -5 -13z"/>
<path d="M5255 850 c-4 -6 -10 -8 -14 -6 -4 3 -8 -1 -8 -9 0 -13 4 -12 19 2
18 16 22 23 14 23 -3 0 -8 -5 -11 -10z"/>
<path d="M1686 838 c3 -5 10 -6 15 -3 13 9 11 12 -6 12 -8 0 -12 -4 -9 -9z"/>
<path d="M5043 843 c-18 -7 -16 -20 2 -20 8 0 12 4 9 8 -2 4 2 10 8 12 7 3 9
5 3 5 -5 0 -16 -2 -22 -5z"/>
<path d="M5113 843 c4 -3 -1 -12 -11 -20 -15 -13 -15 -13 6 -3 23 11 30 30 10
30 -6 0 -8 -3 -5 -7z"/>
<path d="M5275 841 c-3 -5 -2 -12 3 -15 5 -3 9 1 9 9 0 17 -3 19 -12 6z"/>
<path d="M1748 823 c6 -2 9 -10 6 -15 -4 -7 -2 -8 5 -4 13 9 5 26 -12 25 -9 0
-8 -2 1 -6z"/>
<path d="M1790 820 c0 -5 5 -10 10 -10 6 0 10 5 10 10 0 6 -4 10 -10 10 -5 0
-10 -4 -10 -10z"/>
<path d="M1894 818 c-3 -5 -1 -15 5 -21 9 -9 11 -8 6 5 -5 13 -2 15 14 11 12
-3 21 -3 21 0 0 10 -40 15 -46 5z"/>
<path d="M5140 826 c0 -2 8 -10 18 -17 15 -13 16 -12 3 4 -13 16 -21 21 -21
13z"/>
<path d="M1851 811 c-8 -5 -16 -17 -17 -26 -1 -9 1 -14 4 -10 4 4 6 9 4 12 -2
3 5 11 15 19 20 15 16 19 -6 5z"/>
<path d="M1950 799 c0 -5 5 -7 10 -4 6 3 10 8 10 11 0 2 -4 4 -10 4 -5 0 -10
-5 -10 -11z"/>
<path d="M5050 806 c0 -2 7 -7 16 -10 8 -3 12 -2 9 4 -6 10 -25 14 -25 6z"/>
<path d="M1867 787 c-3 -7 3 -13 14 -13 13 0 15 3 7 13 -6 7 -12 13 -13 13 -2
0 -5 -6 -8 -13z"/>
<path d="M5195 789 c-4 -6 -5 -12 -2 -15 2 -3 7 2 10 11 7 17 1 20 -8 4z"/>
<path d="M1775 780 c3 -5 8 -10 11 -10 2 0 4 5 4 10 0 6 -5 10 -11 10 -5 0 -7
-4 -4 -10z"/>
<path d="M1974 782 c3 -5 0 -12 -6 -15 -7 -2 -10 -7 -7 -11 3 -4 12 0 18 8 9
11 9 16 0 22 -7 4 -9 3 -5 -4z"/>
<path d="M4950 780 c0 -5 5 -10 10 -10 6 0 10 5 10 10 0 6 -4 10 -10 10 -5 0
-10 -4 -10 -10z"/>
<path d="M2011 764 c0 -11 3 -14 6 -6 3 7 2 16 -1 19 -3 4 -6 -2 -5 -13z"/>
<path d="M2045 760 c-17 -18 -17 -20 -2 -14 9 3 17 10 17 16 0 5 4 7 10 3 5
-3 7 -12 3 -20 -3 -8 -3 -15 0 -15 12 0 15 30 3 39 -10 8 -18 6 -31 -9z"/>
<path d="M4876 765 c-3 -8 -1 -15 4 -15 6 0 10 7 10 15 0 8 -2 15 -4 15 -2 0
-6 -7 -10 -15z"/>
<path d="M4810 760 c0 -5 5 -10 11 -10 5 0 7 5 4 10 -3 6 -8 10 -11 10 -2 0
-4 -4 -4 -10z"/>
<path d="M2120 751 c0 -7 -4 -10 -8 -7 -5 3 -16 -4 -25 -15 -9 -10 -12 -19 -7
-19 6 0 13 7 16 15 4 8 10 13 14 10 10 -6 24 14 16 22 -3 4 -6 1 -6 -6z"/>
<path d="M4790 751 c0 -6 4 -13 10 -16 6 -3 7 1 4 9 -7 18 -14 21 -14 7z"/>
<path d="M1990 741 c0 -6 4 -13 10 -16 6 -3 7 1 4 9 -7 18 -14 21 -14 7z"/>
<path d="M4970 739 c0 -5 5 -7 10 -4 6 3 10 8 10 11 0 2 -4 4 -10 4 -5 0 -10
-5 -10 -11z"/>
<path d="M5070 740 c0 -5 5 -10 11 -10 5 0 7 5 4 10 -3 6 -8 10 -11 10 -2 0
-4 -4 -4 -10z"/>
<path d="M2130 720 c0 -5 5 -10 10 -10 6 0 10 5 10 10 0 6 -4 10 -10 10 -5 0
-10 -4 -10 -10z"/>
<path d="M4675 720 c-3 -6 1 -7 9 -4 18 7 21 14 7 14 -6 0 -13 -4 -16 -10z"/>
<path d="M4770 722 c0 -5 7 -9 15 -9 8 0 12 4 9 9 -3 4 -9 8 -15 8 -5 0 -9 -4
-9 -8z"/>
<path d="M4839 713 c-13 -16 -12 -17 4 -4 16 13 21 21 13 21 -2 0 -10 -8 -17
-17z"/>
<path d="M1973 705 c0 -8 4 -12 9 -9 5 3 6 10 3 15 -9 13 -12 11 -12 -6z"/>
<path d="M2270 700 c0 -5 5 -10 11 -10 5 0 7 5 4 10 -3 6 -8 10 -11 10 -2 0
-4 -4 -4 -10z"/>
<path d="M4605 699 c-4 -6 -5 -12 -2 -15 2 -3 7 2 10 11 7 17 1 20 -8 4z"/>
<path d="M4635 699 c-4 -6 -4 -13 -1 -16 3 -4 6 -1 6 5 0 7 5 12 11 12 5 0 7
-5 3 -12 -4 -7 -3 -8 5 -4 12 8 6 26 -9 26 -5 0 -12 -5 -15 -11z"/>
<path d="M4693 703 c4 -6 1 -13 -7 -16 -14 -6 -16 -30 -4 -43 4 -3 5 2 4 13
-2 10 4 23 12 29 12 9 12 13 2 19 -8 5 -11 4 -7 -2z"/>
<path d="M4753 695 c0 -8 4 -12 9 -9 5 3 6 10 3 15 -9 13 -12 11 -12 -6z"/>
<path d="M2161 681 c-10 -7 -7 -9 12 -8 14 1 23 5 20 10 -6 9 -15 9 -32 -2z"/>
<path d="M2210 677 c0 -6 3 -7 7 -4 3 4 16 -1 27 -10 20 -17 20 -17 6 1 -14
18 -13 19 3 13 10 -4 16 -3 13 2 -8 12 -56 11 -56 -2z"/>
<path d="M4776 673 c-6 -14 -5 -15 5 -6 7 7 10 15 7 18 -3 3 -9 -2 -12 -12z"/>
<path d="M2276 661 c-3 -4 2 -16 12 -24 16 -15 18 -15 19 6 2 17 0 19 -7 7 -9
-14 -14 -7 -11 13 1 10 -7 9 -13 -2z"/>
<path d="M2345 660 c-2 -3 5 -6 15 -7 11 -1 22 2 24 5 3 4 -4 8 -15 8 -11 0
-22 -3 -24 -6z"/>
<path d="M2216 647 c3 -10 9 -15 12 -12 3 3 0 11 -7 18 -10 9 -11 8 -5 -6z"/>
<path d="M4497 646 c-5 -11 -3 -15 5 -10 7 5 9 2 6 -7 -4 -10 1 -15 13 -15 12
0 15 4 9 12 -6 6 -6 15 -2 19 4 5 2 5 -5 2 -6 -4 -13 -2 -15 5 -3 7 -7 5 -11
-6z"/>
<path d="M2395 640 c3 -6 1 -10 -6 -10 -7 0 -10 -3 -6 -6 3 -3 13 -2 22 4 16
8 16 9 1 15 -10 4 -15 3 -11 -3z"/>
<path d="M2436 635 c-9 -26 -7 -32 5 -12 6 10 9 21 6 23 -2 3 -7 -2 -11 -11z"/>
<path d="M4430 634 c0 -9 -5 -12 -12 -8 -7 5 -8 3 -3 -6 6 -10 11 -10 20 3 7
9 16 13 20 9 5 -4 5 -1 1 6 -10 17 -26 15 -26 -4z"/>
<path d="M4467 627 c-3 -8 1 -14 8 -14 7 0 11 6 8 14 -3 7 -6 13 -8 13 -2 0
-5 -6 -8 -13z"/>
<path d="M4655 631 c-3 -5 -2 -12 3 -15 5 -3 9 1 9 9 0 17 -3 19 -12 6z"/>
<path d="M2450 608 c-10 -21 -10 -21 3 -6 8 10 18 14 22 10 5 -4 5 -1 1 6 -10
17 -14 15 -26 -10z"/>
<path d="M2508 597 c-3 -19 -2 -25 4 -19 6 6 8 18 6 28 -3 14 -5 12 -10 -9z"/>
<path d="M4380 616 c0 -2 7 -7 16 -10 8 -3 12 -2 9 4 -6 10 -25 14 -25 6z"/>
<path d="M2366 598 c3 -5 10 -6 15 -3 13 9 11 12 -6 12 -8 0 -12 -4 -9 -9z"/>
<path d="M4340 600 c18 -12 30 -13 30 -2 0 4 -10 9 -22 9 -18 2 -20 0 -8 -7z"/>
<path d="M2467 579 c7 -7 15 -10 18 -7 3 3 -2 9 -12 12 -14 6 -15 5 -6 -5z"/>
<path d="M4310 570 c-6 -11 -9 -20 -8 -20 2 0 11 9 21 20 9 11 13 20 7 20 -5
0 -14 -9 -20 -20z"/>
<path d="M4388 583 c6 -3 10 -9 7 -13 -3 -5 0 -12 7 -16 7 -4 10 -4 6 1 -4 4
-4 13 2 19 6 8 2 12 -13 13 -12 0 -16 -1 -9 -4z"/>
<path d="M4279 573 c0 -5 -2 -15 -4 -24 -1 -9 0 -22 4 -28 4 -7 8 4 8 24 0 30
-6 50 -8 28z"/>
<path d="M2526 562 c-3 -5 1 -9 9 -9 8 0 12 4 9 9 -3 4 -7 8 -9 8 -2 0 -6 -4
-9 -8z"/>
<path d="M2594 548 c-19 -23 -19 -23 2 -5 11 9 24 14 27 10 4 -3 7 -1 7 5 0
19 -15 14 -36 -10z"/>
<path d="M2689 556 c10 -11 8 -15 -6 -19 -10 -3 -6 -4 9 -4 25 1 26 2 11 19
-19 21 -31 24 -14 4z"/>
<path d="M4190 560 c0 -5 5 -10 11 -10 5 0 7 5 4 10 -3 6 -8 10 -11 10 -2 0
-4 -4 -4 -10z"/>
<path d="M4420 566 c0 -2 8 -10 18 -17 15 -13 16 -12 3 4 -13 16 -21 21 -21
13z"/>
<path d="M2734 538 c-5 -7 -3 -8 6 -3 9 5 11 1 6 -16 -3 -13 -3 -18 0 -11 3 6
10 9 16 6 6 -4 5 2 -1 15 -13 24 -17 25 -27 9z"/>
<path d="M4150 538 c0 -6 7 -7 16 -4 13 5 15 2 11 -14 -3 -11 -1 -17 4 -14 16
9 6 37 -13 40 -10 1 -18 -2 -18 -8z"/>
<path d="M2638 533 c7 -3 16 -2 19 1 4 3 -2 6 -13 5 -11 0 -14 -3 -6 -6z"/>
<path d="M4100 529 c0 -8 10 -20 23 -28 l22 -14 -20 24 c-11 13 -21 26 -22 28
-2 2 -3 -2 -3 -10z"/>
<path d="M4130 531 c0 -6 4 -13 10 -16 6 -3 7 1 4 9 -7 18 -14 21 -14 7z"/>
<path d="M2796 518 c3 -4 9 -8 15 -8 5 0 9 4 9 8 0 5 -7 9 -15 9 -8 0 -12 -4
-9 -9z"/>
<path d="M2633 505 c0 -8 4 -12 9 -9 5 3 6 10 3 15 -9 13 -12 11 -12 -6z"/>
<path d="M2775 500 c-7 -12 19 -24 37 -17 7 3 3 6 -10 6 -13 1 -20 5 -17 11 3
6 4 10 1 10 -3 0 -8 -5 -11 -10z"/>
<path d="M4070 500 c0 -5 5 -10 10 -10 6 0 10 5 10 10 0 6 -4 10 -10 10 -5 0
-10 -4 -10 -10z"/>
<path d="M2850 491 c0 -6 4 -13 10 -16 6 -3 7 1 4 9 -7 18 -14 21 -14 7z"/>
<path d="M2875 490 c3 -5 8 -10 11 -10 2 0 4 5 4 10 0 6 -5 10 -11 10 -5 0 -7
-4 -4 -10z"/>
<path d="M4276 487 c3 -10 9 -15 12 -12 3 3 0 11 -7 18 -10 9 -11 8 -5 -6z"/>
<path d="M2914 479 c-4 -7 -3 -9 4 -5 5 3 13 0 15 -6 4 -9 6 -10 6 -1 1 17
-16 25 -25 12z"/>
<path d="M4031 487 c2 -1 12 -9 22 -16 15 -12 17 -12 11 3 -3 9 -13 16 -22 16
-8 0 -13 -1 -11 -3z"/>
<path d="M4194 476 c1 -8 5 -18 8 -22 4 -3 5 1 4 10 -1 8 -5 18 -8 22 -4 3 -5
-1 -4 -10z"/>
<path d="M2827 467 c-3 -7 3 -13 14 -13 13 0 15 3 7 13 -6 7 -12 13 -13 13 -2
0 -5 -6 -8 -13z"/>
<path d="M3934 469 c1 -7 14 -13 28 -13 15 -1 24 2 21 7 -3 5 -14 7 -24 4 -10
-3 -20 -1 -23 4 -2 5 -3 4 -2 -2z"/>
<path d="M2950 460 c0 -5 7 -7 15 -4 8 4 15 8 15 10 0 2 -7 4 -15 4 -8 0 -15
-4 -15 -10z"/>
<path d="M3870 449 c0 -5 -4 -7 -10 -4 -6 4 -7 -1 -3 -11 4 -11 8 -13 11 -6 2
7 8 10 13 7 5 -4 6 1 3 9 -7 18 -14 21 -14 5z"/>
<path d="M2881 436 c-8 -10 -9 -16 -1 -21 6 -4 9 -1 8 7 -2 7 3 12 10 10 8 -1
11 2 7 8 -8 13 -10 13 -24 -4z"/>
<path d="M2960 440 c-8 -5 -10 -10 -5 -10 6 0 17 5 25 10 8 5 11 10 5 10 -5 0
-17 -5 -25 -10z"/>
<path d="M3015 440 c-3 -5 -1 -10 4 -10 6 0 11 5 11 10 0 6 -2 10 -4 10 -3 0
-8 -4 -11 -10z"/>
<path d="M3920 440 c8 -5 20 -10 25 -10 6 0 3 5 -5 10 -8 5 -19 10 -25 10 -5
0 -3 -5 5 -10z"/>
<path d="M4054 436 c1 -8 5 -18 8 -22 4 -3 5 1 4 10 -1 8 -5 18 -8 22 -4 3 -5
-1 -4 -10z"/>
<path d="M2976 421 c-3 -4 4 -17 17 -27 22 -19 22 -19 4 2 -9 11 -14 24 -10
27 3 4 4 7 0 7 -3 0 -8 -4 -11 -9z"/>
<path d="M3815 421 c-3 -5 0 -13 6 -17 8 -5 9 -3 4 6 -6 10 -4 12 8 7 10 -3
17 -2 17 3 0 13 -27 13 -35 1z"/>
<path d="M3133 401 c2 -11 7 -24 12 -28 4 -5 4 -2 0 6 -6 11 -4 13 9 8 10 -4
19 -7 21 -7 2 0 1 -10 -1 -22 -4 -21 -4 -22 5 -3 7 15 5 23 -8 32 -9 7 -22 17
-28 23 -10 8 -12 6 -10 -9z"/>
<path d="M3897 410 c7 -8 20 -15 29 -16 9 -1 13 1 9 4 -4 4 -10 7 -13 7 -4 0
-14 4 -22 9 -12 7 -13 6 -3 -4z"/>
<path d="M3695 400 c-4 -6 -11 -8 -16 -5 -5 4 -9 1 -9 -4 0 -19 34 -13 36 7 3
15 -3 16 -11 2z"/>
<path d="M3780 400 c8 -5 20 -10 25 -10 6 0 3 5 -5 10 -8 5 -19 10 -25 10 -5
0 -3 -5 5 -10z"/>
<path d="M3953 395 c0 -8 4 -12 9 -9 5 3 6 10 3 15 -9 13 -12 11 -12 -6z"/>
<path d="M3080 396 c0 -2 7 -7 16 -10 8 -3 12 -2 9 4 -6 10 -25 14 -25 6z"/>
<path d="M2925 380 c-3 -6 1 -7 9 -4 18 7 21 14 7 14 -6 0 -13 -4 -16 -10z"/>
<path d="M3735 379 c-4 -6 -5 -12 -2 -15 2 -3 7 2 10 11 7 17 1 20 -8 4z"/>
<path d="M3779 378 c-5 -18 -6 -38 -1 -34 7 8 12 36 6 36 -2 0 -4 -1 -5 -2z"/>
<path d="M3095 360 c-3 -5 3 -7 12 -5 10 1 25 -2 33 -8 12 -9 13 -9 3 3 -15
16 -41 22 -48 10z"/>
<path d="M3196 361 c-3 -5 2 -15 12 -22 16 -13 16 -13 2 5 -14 18 -13 19 3 13
11 -4 16 -3 12 3 -8 12 -22 13 -29 1z"/>
<path d="M3274 359 c-4 -7 -3 -9 4 -5 5 3 13 0 15 -6 4 -9 6 -10 6 -1 1 17
-16 25 -25 12z"/>
<path d="M3650 362 c0 -4 10 -9 22 -9 18 -2 20 0 8 7 -18 12 -30 13 -30 2z"/>
<path d="M3560 350 c0 -5 -8 -7 -17 -3 -10 3 -15 3 -12 -1 4 -4 16 -8 27 -11
15 -2 19 0 15 11 -6 16 -13 19 -13 4z"/>
<path d="M3813 345 c0 -8 4 -12 9 -9 5 3 6 10 3 15 -9 13 -12 11 -12 -6z"/>
<path d="M3030 341 c0 -6 4 -13 10 -16 6 -3 7 1 4 9 -7 18 -14 21 -14 7z"/>
<path d="M3235 341 c-3 -6 3 -14 13 -20 14 -7 19 -6 19 4 0 7 -7 11 -15 7 -10
-3 -13 -1 -8 6 4 7 5 12 2 12 -3 0 -7 -4 -11 -9z"/>
<path d="M3310 340 c0 -5 5 -10 11 -10 5 0 7 5 4 10 -3 6 -8 10 -11 10 -2 0
-4 -4 -4 -10z"/>
<path d="M3628 343 c6 -2 9 -10 6 -15 -4 -7 -2 -8 5 -4 13 9 5 26 -12 25 -9 0
-8 -2 1 -6z"/>
<path d="M3853 335 c0 -8 4 -12 9 -9 5 3 6 10 3 15 -9 13 -12 11 -12 -6z"/>
<path d="M3348 333 c7 -3 16 -2 19 1 4 3 -2 6 -13 5 -11 0 -14 -3 -6 -6z"/>
<path d="M3492 331 c-11 -6 -10 -10 0 -19 11 -8 14 -7 14 9 0 10 0 19 -1 19 0
0 -6 -4 -13 -9z"/>
<path d="M3189 317 c6 -8 7 -18 3 -22 -4 -5 -1 -5 6 -1 10 6 10 11 1 22 -6 8
-14 14 -16 14 -3 0 0 -6 6 -13z"/>
<path d="M3416 312 c-2 -4 4 -8 14 -8 10 0 16 4 14 8 -3 4 -9 8 -14 8 -5 0
-11 -4 -14 -8z"/>
<path d="M3310 296 c7 -7 13 -7 20 0 6 6 3 10 -10 10 -13 0 -16 -4 -10 -10z"/>
<path d="M3550 296 c7 -7 13 -7 20 0 6 6 3 10 -10 10 -13 0 -16 -4 -10 -10z"/>
<path d="M3413 271 c0 -11 5 -18 9 -15 4 3 5 11 1 19 -7 21 -12 19 -10 -4z"/>
<path d="M3450 259 c0 -5 5 -7 10 -4 6 3 10 8 10 11 0 2 -4 4 -10 4 -5 0 -10
-5 -10 -11z"/>
</g>
</svg>
